<svg width="24" height="25" viewBox="0 0 24 25" fill="none" xmlns="http://www.w3.org/2000/svg">
<path d="M13.4531 7.99219H11.25L9.85547 13.3359C9.38672 15.1406 8.89453 16.6641 8.37891 17.9062C7.86328 19.1484 7.32812 20.1523 6.77344 20.918C6.21875 21.6914 5.64453 22.2461 5.05078 22.582C4.45703 22.9258 3.84375 23.0977 3.21094 23.0977C3.00781 23.0977 2.8125 23.0664 2.625 23.0039C2.42969 22.9492 2.25391 22.8672 2.09766 22.7578C1.94141 22.6562 1.81641 22.5273 1.72266 22.3711C1.62891 22.2227 1.58203 22.0508 1.58203 21.8555C1.58203 21.582 1.6875 21.3477 1.89844 21.1523C2.10156 20.9648 2.35938 20.8711 2.67188 20.8711C2.89844 20.8711 3.08984 20.9414 3.24609 21.082C3.40234 21.2227 3.48047 21.3867 3.48047 21.5742C3.48047 21.6523 3.45703 21.7305 3.41016 21.8086C3.36328 21.8945 3.31641 21.9727 3.26953 22.043C3.21484 22.1211 3.16406 22.1836 3.11719 22.2305C3.07031 22.2773 3.04688 22.3047 3.04688 22.3125C3.04688 22.4453 3.16797 22.5117 3.41016 22.5117C3.66797 22.5117 3.92969 22.4609 4.19531 22.3594C4.45312 22.2578 4.70312 22.0859 4.94531 21.8438C5.1875 21.6016 5.42188 21.2852 5.64844 20.8945C5.875 20.5039 6.08203 20.0195 6.26953 19.4414C6.32422 19.2773 6.42188 18.9219 6.5625 18.375C6.70312 17.8281 6.89844 17.0898 7.14844 16.1602L9.30469 7.99219H6.9375L7.16016 7.01953C7.41797 7.02734 7.66016 7.02344 7.88672 7.00781C8.08203 7 8.27344 6.98438 8.46094 6.96094C8.64062 6.94531 8.77344 6.91797 8.85938 6.87891C9.01562 6.81641 9.14844 6.75781 9.25781 6.70312C9.35938 6.64844 9.45703 6.56641 9.55078 6.45703C9.64453 6.35547 9.74609 6.21094 9.85547 6.02344C9.96484 5.83594 10.1016 5.57422 10.2656 5.23828C10.6328 4.48047 11.0234 3.82812 11.4375 3.28125C11.8516 2.73438 12.2773 2.28516 12.7148 1.93359C13.1445 1.58203 13.582 1.32031 14.0273 1.14844C14.4648 0.984375 14.8945 0.902344 15.3164 0.902344C15.6211 0.902344 15.8984 0.945312 16.1484 1.03125C16.3984 1.11719 16.6133 1.23047 16.793 1.37109C16.9727 1.51172 17.1133 1.67188 17.2148 1.85156C17.3086 2.03125 17.3555 2.21484 17.3555 2.40234C17.3555 2.54297 17.332 2.67578 17.2852 2.80078C17.2305 2.92578 17.1602 3.03516 17.0742 3.12891C16.9805 3.22266 16.8711 3.29688 16.7461 3.35156C16.6133 3.40625 16.4727 3.43359 16.3242 3.43359C16.082 3.43359 15.8789 3.35938 15.7148 3.21094C15.543 3.0625 15.457 2.87891 15.457 2.66016C15.457 2.59766 15.4727 2.51562 15.5039 2.41406C15.5352 2.32031 15.5703 2.22656 15.6094 2.13281C15.6484 2.04688 15.6836 1.96875 15.7148 1.89844C15.7461 1.83594 15.7617 1.80859 15.7617 1.81641C15.7617 1.69922 15.7148 1.61719 15.6211 1.57031C15.5195 1.52344 15.3984 1.5 15.2578 1.5C14.6875 1.5 14.1836 1.71094 13.7461 2.13281C13.3008 2.5625 12.8984 3.15625 12.5391 3.91406C12.4297 4.14844 12.2969 4.51953 12.1406 5.02734C11.9766 5.53516 11.7695 6.19922 11.5195 7.01953H13.7344M18.5859 11.5547C18.1797 11.8906 17.6914 12.5508 17.1211 13.5352L17.9414 16.9688C18.0039 17.2344 18.0625 17.4375 18.1172 17.5781C18.1641 17.7266 18.2109 17.832 18.2578 17.8945C18.2969 17.9648 18.3359 18.0039 18.375 18.0117C18.4062 18.0273 18.4414 18.0352 18.4805 18.0352C18.5742 18.0352 18.6836 17.9922 18.8086 17.9062C18.9336 17.8203 19.0586 17.7109 19.1836 17.5781C19.3086 17.4453 19.4336 17.293 19.5586 17.1211C19.6758 16.957 19.7773 16.793 19.8633 16.6289L19.8867 16.582L20.332 16.8047L20.3086 16.8516C20.1523 17.1328 19.9688 17.418 19.7578 17.707C19.5391 17.9961 19.3086 18.2578 19.0664 18.4922C18.8242 18.7266 18.5859 18.918 18.3516 19.0664C18.1172 19.2148 17.9062 19.2891 17.7188 19.2891C17.3281 19.2891 17.0156 19.0664 16.7812 18.6211C16.7109 18.4883 16.6094 18.1562 16.4766 17.625C16.3359 17.0938 16.1562 16.3438 15.9375 15.375C15.5 16.125 15.1094 16.75 14.7656 17.25C14.4219 17.7578 14.1055 18.1602 13.8164 18.457C13.5273 18.7617 13.2578 18.9766 13.0078 19.1016C12.7578 19.2266 12.5117 19.2891 12.2695 19.2891C12.1523 19.2891 12.0352 19.2656 11.918 19.2188C11.793 19.1797 11.6836 19.1211 11.5898 19.043C11.4883 18.9648 11.4062 18.8672 11.3438 18.75C11.2812 18.6328 11.25 18.5 11.25 18.3516C11.25 18.125 11.3281 17.9297 11.4844 17.7656C11.6406 17.6094 11.832 17.5312 12.0586 17.5312C12.1445 17.5312 12.2461 17.5586 12.3633 17.6133C12.4805 17.6758 12.5938 17.7383 12.7031 17.8008C12.8125 17.8711 12.9102 17.9336 12.9961 17.9883C13.0742 18.0508 13.1211 18.082 13.1367 18.082C13.2617 18.082 13.4609 17.9297 13.7344 17.625C14 17.3281 14.3203 16.8867 14.6953 16.3008C14.9609 15.8867 15.1836 15.5273 15.3633 15.2227C15.5352 14.9258 15.6641 14.6836 15.75 14.4961C15.6172 13.9727 15.5078 13.5469 15.4219 13.2188C15.3359 12.8906 15.2695 12.6328 15.2227 12.4453C15.168 12.2656 15.1328 12.1406 15.1172 12.0703C15.0938 12 15.082 11.957 15.082 11.9414C15.0039 11.7305 14.9219 11.5508 14.8359 11.4023C14.7422 11.2539 14.6328 11.1328 14.5078 11.0391C14.375 10.9453 14.2227 10.8789 14.0508 10.8398C13.8789 10.8008 13.6719 10.7812 13.4297 10.7812C13.3516 10.7812 13.2695 10.7812 13.1836 10.7812C13.0977 10.7891 13.0039 10.7969 12.9023 10.8047H12.8555V10.3477L15.6094 9.89062C15.7656 10.0625 15.9102 10.2344 16.043 10.4062C16.1758 10.5859 16.2852 10.7656 16.3711 10.9453C16.4258 11.0625 16.5 11.2695 16.5938 11.5664C16.6875 11.8633 16.8008 12.2539 16.9336 12.7383L17.7539 11.5078C17.9102 11.2734 18.0859 11.0547 18.2812 10.8516C18.4766 10.6562 18.6797 10.4844 18.8906 10.3359C19.0938 10.1875 19.2969 10.0703 19.5 9.98438C19.7031 9.90625 19.8906 9.86719 20.0625 9.86719C20.3594 9.86719 20.5977 9.94922 20.7773 10.1133C20.957 10.2852 21.0469 10.4844 21.0469 10.7109C21.0469 10.875 21.0234 11.0117 20.9766 11.1211C20.9219 11.2305 20.8555 11.3125 20.7773 11.3672C20.6992 11.4297 20.6094 11.4727 20.5078 11.4961C20.4062 11.5195 20.3086 11.5312 20.2148 11.5312C20.082 11.5312 19.9219 11.5 19.7344 11.4375C19.5469 11.375 19.4102 11.332 19.3242 11.3086C19.2305 11.293 19.1641 11.2852 19.125 11.2852C18.9844 11.2852 18.8047 11.375 18.5859 11.5547Z" fill="#37A660"/>
</svg>
