<svg width="166" height="48" viewBox="0 0 166 48" fill="none" xmlns="http://www.w3.org/2000/svg">
<rect width="48" height="48" rx="24" fill="#218D51" fill-opacity="0.16"/>
<path d="M23.9028 16.5056L24 16.5C24.4273 16.5 24.7796 16.8217 24.8278 17.2361L24.8333 17.3333V23.1667H30.6667C31.094 23.1667 31.4462 23.4883 31.4944 23.9028L31.5 24C31.5 24.4273 31.1783 24.7796 30.7638 24.8278L30.6667 24.8333H24.8333V30.6667C24.8333 31.094 24.5117 31.4462 24.0972 31.4944L24 31.5C23.5727 31.5 23.2204 31.1783 23.1722 30.7638L23.1667 30.6667V24.8333H17.3333C16.906 24.8333 16.5537 24.5117 16.5056 24.0972L16.5 24C16.5 23.5727 16.8217 23.2204 17.2361 23.1722L17.3333 23.1667H23.1667V17.3333C23.1667 16.906 23.4883 16.5537 23.9028 16.5056Z" fill="#37A660"/>
<g opacity="0.28">
<rect x="38" width="48" height="48" rx="24" fill="#218D51"/>
</g>
<g opacity="0.6">
<rect x="77" width="48" height="48" rx="24" fill="#218D51"/>
</g>
<rect x="118" width="48" height="48" rx="24" fill="#218D51"/>
<path d="M92.357 17.5714H94.9284C95.9514 17.5714 96.9325 17.9778 97.6558 18.7011C98.3792 19.4245 98.7856 20.4056 98.7856 21.4286C98.7856 22.4515 98.3792 23.4326 97.6558 24.156C96.9325 24.8793 95.9514 25.2857 94.9284 25.2857H93.6427V29.1428C93.6427 29.4838 93.5072 29.8109 93.2661 30.0521C93.025 30.293 92.698 30.4286 92.357 30.4286C92.016 30.4286 91.689 30.293 91.4479 30.0521C91.2068 29.8109 91.0713 29.4838 91.0713 29.1428V18.8571C91.0713 18.5161 91.2068 18.1891 91.4479 17.948C91.689 17.7069 92.016 17.5714 92.357 17.5714ZM93.6427 22.7143H94.9284C95.2694 22.7143 95.5964 22.5788 95.8376 22.3377C96.0787 22.0966 96.2141 21.7696 96.2141 21.4286C96.2141 21.0876 96.0787 20.7605 95.8376 20.5194C95.5964 20.2783 95.2694 20.1428 94.9284 20.1428H93.6427V22.7143Z" fill="white"/>
<path d="M111.671 19.6286L108.071 24.4268V29.1428C108.071 29.4838 107.936 29.8109 107.695 30.0521C107.454 30.293 107.127 30.4286 106.786 30.4286C106.445 30.4286 106.118 30.293 105.876 30.0521C105.635 29.8109 105.5 29.4838 105.5 29.1428V24.4268L101.9 19.6286C101.799 19.4935 101.725 19.3398 101.683 19.1762C101.641 19.0127 101.632 18.8424 101.656 18.6753C101.68 18.5082 101.736 18.3473 101.822 18.2021C101.908 18.0568 102.022 17.9299 102.157 17.8286C102.43 17.624 102.773 17.5361 103.11 17.5843C103.448 17.6326 103.752 17.8129 103.957 18.0857L106.786 21.858L109.614 18.0857C109.819 17.8129 110.123 17.6326 110.461 17.5843C110.799 17.5361 111.141 17.624 111.414 17.8286C111.687 18.0332 111.867 18.3377 111.916 18.6753C111.964 19.0129 111.876 19.3558 111.671 19.6286Z" fill="white"/>
<path d="M53.357 17.5714H55.9284C56.9514 17.5714 57.9325 17.9778 58.6558 18.7011C59.3792 19.4245 59.7856 20.4056 59.7856 21.4286C59.7856 22.4515 59.3792 23.4326 58.6558 24.156C57.9325 24.8793 56.9514 25.2857 55.9284 25.2857H54.6427V29.1428C54.6427 29.4838 54.5072 29.8109 54.2661 30.0521C54.025 30.293 53.698 30.4286 53.357 30.4286C53.016 30.4286 52.689 30.293 52.4479 30.0521C52.2068 29.8109 52.0713 29.4838 52.0713 29.1428V18.8571C52.0713 18.5161 52.2068 18.1891 52.4479 17.948C52.689 17.7069 53.016 17.5714 53.357 17.5714ZM54.6427 22.7143H55.9284C56.2694 22.7143 56.5964 22.5788 56.8376 22.3377C57.0787 22.0966 57.2141 21.7696 57.2141 21.4286C57.2141 21.0876 57.0787 20.7605 56.8376 20.5194C56.5964 20.2783 56.2694 20.1428 55.9284 20.1428H54.6427V22.7143Z" fill="white"/>
<path d="M72.6713 19.6286L69.0713 24.4268V29.1428C69.0713 29.4838 68.9358 29.8109 68.6947 30.0521C68.4536 30.293 68.1266 30.4286 67.7856 30.4286C67.4446 30.4286 67.1176 30.293 66.8765 30.0521C66.6354 29.8109 66.4999 29.4838 66.4999 29.1428V24.4268L62.8999 19.6286C62.7986 19.4935 62.7249 19.3398 62.683 19.1762C62.641 19.0127 62.6318 18.8424 62.6556 18.6753C62.6795 18.5082 62.7361 18.3473 62.8221 18.2021C62.9082 18.0568 63.0219 17.9299 63.157 17.8286C63.4298 17.624 63.7727 17.5361 64.1103 17.5843C64.4478 17.6326 64.7524 17.8129 64.957 18.0857L67.7856 21.858L70.6142 18.0857C70.8189 17.8129 71.1233 17.6326 71.4609 17.5843C71.7986 17.5361 72.1413 17.624 72.4142 17.8286C72.687 18.0332 72.8672 18.3377 72.9156 18.6753C72.9637 19.0129 72.876 19.3558 72.6713 19.6286Z" fill="white"/>
<g filter="url(#filter0_d_101_2814)">
<path d="M135.852 15.9746H139.112C140.409 15.9746 141.563 16.482 142.321 17.385C143.079 18.288 143.378 19.5128 143.153 20.7899C142.927 22.067 142.196 23.2918 141.12 24.1949C140.044 25.0979 138.711 25.6052 137.414 25.6052H135.784L134.935 30.4205C134.86 30.8462 134.616 31.2545 134.258 31.5557C133.899 31.8565 133.454 32.0256 133.022 32.0256C132.59 32.0256 132.205 31.8565 131.953 31.5557C131.7 31.2545 131.6 30.8462 131.675 30.4205L133.94 17.5797C134.015 17.154 134.258 16.7458 134.617 16.4447C134.976 16.1437 135.42 15.9746 135.852 15.9746ZM136.35 22.395H137.98C138.412 22.395 138.857 22.2259 139.215 21.9249C139.574 21.6239 139.818 21.2156 139.893 20.7899C139.968 20.3642 139.868 19.956 139.616 19.6549C139.363 19.3539 138.978 19.1848 138.546 19.1848H136.916L136.35 22.395Z" fill="white"/>
<path d="M157.829 18.5428L152.209 24.533L151.171 30.4205C151.096 30.8462 150.852 31.2545 150.493 31.5557C150.135 31.8565 149.69 32.0256 149.258 32.0256C148.826 32.0256 148.441 31.8565 148.188 31.5557C147.936 31.2545 147.836 30.8462 147.911 30.4205L148.949 24.533L145.442 18.5428C145.343 18.3741 145.284 18.1823 145.267 17.9781C145.249 17.7739 145.275 17.5614 145.342 17.3527C145.409 17.1441 145.516 16.9433 145.657 16.7619C145.798 16.5806 145.971 16.4221 146.164 16.2956C146.555 16.0402 147.009 15.9305 147.426 15.9908C147.844 16.0509 148.19 16.2761 148.389 16.6166L151.145 21.326L155.561 16.6166C155.88 16.2761 156.306 16.0509 156.745 15.9908C157.183 15.9305 157.598 16.0402 157.899 16.2956C158.2 16.5511 158.361 16.9313 158.348 17.3527C158.335 17.7742 158.148 18.2022 157.829 18.5428Z" fill="white"/>
<path fill-rule="evenodd" clip-rule="evenodd" d="M125.082 20.2085C125.082 19.5181 125.641 18.9585 126.332 18.9585H128.332C129.022 18.9585 129.582 19.5181 129.582 20.2085C129.582 20.8989 129.022 21.4585 128.332 21.4585H126.332C125.641 21.4585 125.082 20.8989 125.082 20.2085ZM121.332 23.9585L127.332 23.9585C128.022 23.9585 128.582 24.5181 128.582 25.2085C128.582 25.8989 128.022 26.4585 127.332 26.4585H121.332C120.641 26.4585 120.082 25.8989 120.082 25.2085C120.082 24.5181 120.641 23.9585 121.332 23.9585ZM115.082 30.2085C115.082 29.5181 115.641 28.9585 116.332 28.9585L125.332 28.9585C126.022 28.9585 126.582 29.5181 126.582 30.2085C126.582 30.8989 126.022 31.4585 125.332 31.4585L116.332 31.4585C115.641 31.4585 115.082 30.8989 115.082 30.2085Z" fill="white"/>
</g>
<defs>
<filter id="filter0_d_101_2814" x="109.082" y="14.9746" width="49.2676" height="22.051" filterUnits="userSpaceOnUse" color-interpolation-filters="sRGB">
<feFlood flood-opacity="0" result="BackgroundImageFix"/>
<feColorMatrix in="SourceAlpha" type="matrix" values="0 0 0 0 0 0 0 0 0 0 0 0 0 0 0 0 0 0 127 0" result="hardAlpha"/>
<feOffset dx="-3" dy="2"/>
<feGaussianBlur stdDeviation="1.5"/>
<feComposite in2="hardAlpha" operator="out"/>
<feColorMatrix type="matrix" values="0 0 0 0 0.0149192 0 0 0 0 0.403271 0 0 0 0 0.193561 0 0 0 1 0"/>
<feBlend mode="normal" in2="BackgroundImageFix" result="effect1_dropShadow_101_2814"/>
<feBlend mode="normal" in="SourceGraphic" in2="effect1_dropShadow_101_2814" result="shape"/>
</filter>
</defs>
</svg>
