<svg width="24" height="25" viewBox="0 0 24 25" fill="none" xmlns="http://www.w3.org/2000/svg">
<path d="M6.5 8.28568H8.07143C8.69657 8.28568 9.29612 8.53403 9.73816 8.97608C10.1802 9.41813 10.4286 10.0177 10.4286 10.6428C10.4286 11.268 10.1802 11.8675 9.73816 12.3096C9.29612 12.7516 8.69657 13 8.07143 13H7.28571V15.3571C7.28571 15.5655 7.20292 15.7654 7.05558 15.9128C6.90823 16.06 6.70839 16.1428 6.5 16.1428C6.29161 16.1428 6.09177 16.06 5.94442 15.9128C5.79708 15.7654 5.71429 15.5655 5.71429 15.3571V9.0714C5.71429 8.86301 5.79708 8.66317 5.94442 8.51582C6.09177 8.36847 6.29161 8.28568 6.5 8.28568ZM7.28571 11.4285H8.07143C8.27982 11.4285 8.47965 11.3458 8.62701 11.1984C8.77434 11.0511 8.85714 10.8512 8.85714 10.6428C8.85714 10.4344 8.77434 10.2346 8.62701 10.0872C8.47965 9.9399 8.27982 9.85711 8.07143 9.85711H7.28571V11.4285Z" fill="#60BD82"/>
<path d="M18.9143 9.54283L16.7143 12.4751V15.3571C16.7143 15.5655 16.6315 15.7654 16.4842 15.9128C16.3368 16.06 16.137 16.1428 15.9286 16.1428C15.7202 16.1428 15.5204 16.06 15.373 15.9128C15.2257 15.7654 15.1429 15.5655 15.1429 15.3571V12.4751L12.9429 9.54283C12.881 9.46028 12.8359 9.36635 12.8103 9.2664C12.7847 9.16645 12.779 9.06242 12.7936 8.96028C12.8082 8.85814 12.8428 8.75986 12.8953 8.67108C12.9479 8.58231 13.0175 8.50474 13.1 8.44283C13.2667 8.3178 13.4763 8.26411 13.6826 8.29359C13.8888 8.32305 14.075 8.43327 14.2 8.59997L15.9286 10.9053L17.6572 8.59997C17.7822 8.43327 17.9683 8.32305 18.1746 8.29359C18.381 8.26411 18.5904 8.3178 18.7572 8.44283C18.9239 8.56786 19.034 8.754 19.0636 8.96028C19.093 9.16658 19.0394 9.37613 18.9143 9.54283Z" fill="#60BD82"/>
<path d="M5.71429 1.99997C4.14286 1.99997 2.57143 1.99997 1 1.99997V22.4285C2.57143 22.4285 4.14286 22.4285 5.71429 22.4285V20.8571H2.57143V3.5714C2.16231 3.5714 5.19048 3.5714 5.71429 3.5714V1.99997Z" fill="#60BD82"/>
<path d="M18.2857 20.8571C19.3333 20.8571 20.381 20.8571 21.4286 20.8571C21.4286 17.7143 21.4286 6.71426 21.4286 3.5714L18.2857 3.5714V1.99997L23 1.99997C23 6.19045 23 18.2381 23 22.4285H18.2857V20.8571Z" fill="#60BD82"/>
</svg>
